# xmcd
#
# Track frame offsets:
# 150
# 8420
# 21915
# 41512
# 63822
# 79690
# 92772
# 109777
# 122904
# 138107
# 155705
# 167302
# 182145
# 194275
# 203277
# 217072
# 231657
# 245835
# 256170
# 264472
#
# Disc length: 3741 seconds
#
#
# Revision: 0
# Processed by: cddbd v1.5.1PL2 Copyright (c) Steve Scherf et al.
# Submitted via: FreeRIP 2.944 
#
DISCID=0b0e9b14
DTITLE=J. D. Sumner - The Wait Is Over
DYEAR=1999
DGENRE=Southern Gospel
TTITLE0=What A Morning
TTITLE1=Look Down That Lonesome Road
TTITLE2=American Trilogy
TTITLE3=If I Can Help Somebody
TTITLE4=Precious Memories
TTITLE5=Thank God For Kids
TTITLE6=His Hand In Mine
TTITLE7=Blessed Assurance
TTITLE8=If I Could Hear My Mother Pray Again
TTITLE9=Going Home
TTITLE10=Let The Lower Lights Be Burning
TTITLE11=Green, Green Grass Of Home
TTITLE12=Old Time Religion
TTITLE13=Roll On Jordan
TTITLE14=I Am A Pilgrim
TTITLE15=I've Got To Walk That Lonesome Road
TTITLE16=Walking And Talking With My Lord
TTITLE17=A Wonderful Time Up There
TTITLE18=Give The World A Smile
TTITLE19=Rainbow Of Love
EXTD=
EXTT0=
EXTT1=
EXTT2=
EXTT3=
EXTT4=
EXTT5=
EXTT6=
EXTT7=
EXTT8=
EXTT9=
EXTT10=
EXTT11=
EXTT12=
EXTT13=
EXTT14=
EXTT15=
EXTT16=
EXTT17=
EXTT18=
EXTT19=
PLAYORDER=
